Coordinates
version=1
nRows=14
nColumns=36
inDegrees=yes

Units are S.I. units (second, meters, Newtons, ...)
If the header above contains a line with 'inDegrees', this indicates whether rotational values are in degrees (yes) or radians (no).

endheader
time	pelvis_tilt	pelvis_list	pelvis_rotation	pelvis_tx	pelvis_ty	pelvis_tz	hip_flexion_r	hip_adduction_r	hip_rotation_r	knee_angle_r	knee_angle_r_beta	ankle_angle_r	subtalar_angle_r	mtp_angle_r	hip_flexion_l	hip_adduction_l	hip_rotation_l	knee_angle_l	knee_angle_l_beta	ankle_angle_l	subtalar_angle_l	mtp_angle_l	lumbar_extension	lumbar_bending	lumbar_rotation	arm_flex_r	arm_add_r	arm_rot_r	elbow_flex_r	pro_sup_r	arm_flex_l	arm_add_l	arm_rot_l	elbow_flex_l	pro_sup_l
      0.34000000	      0.51222378	     -1.71324861	      1.25315465	      0.23554275	      1.04769275	     -0.20821662	     -4.57185450	      7.84460294	     -4.41868782	      1.00021631	      0.01745707	      8.00511300	     -0.09666209	     -6.03206614	     28.85414221	     -5.40357922	     -6.97239088	     50.63348612	      0.88372104	     -4.54504453	     -6.51046804	     -6.03206614	    -10.99596502	      5.20462117	     10.23812514	     -3.47008636	    -10.75216784	    -12.83213828	     42.66592312	    108.53954009	    -11.68017804	     -9.97962669	     -1.51561508	     37.27273903	    108.48576598
      0.35000000	      0.43308883	     -1.64700402	      0.83988716	      0.24722370	      1.04695372	     -0.20751237	     -5.37078832	      7.79144079	     -4.24393143	      0.77787205	      0.01357643	      8.66921256	      0.52236368	     -6.07923515	     28.97657624	     -5.01783984	     -7.23833383	     46.93288409	      0.81913335	     -4.97959116	     -7.78297174	     -6.07923515	    -11.07763199	      5.03303329	     10.84836758	     -3.11900800	    -11.15150983	    -12.72991487	     43.07277065	    108.54572509	    -12.14483042	     -9.85271035	     -2.23800574	     37.26891775	    108.27673622
      0.36000000	      0.26916712	     -1.66959369	      0.40572774	      0.25892818	      1.04584541	     -0.20675200	     -6.03139692	      7.82627576	     -3.91062130	      0.65865417	      0.01149568	      9.27058912	      0.83147350	     -6.11178653	     29.06652655	     -4.74835551	     -7.45138515	     43.01331778	      0.75072402	     -5.12820856	     -8.56975972	     -6.11178653	    -11.05307161	      4.94993223	     11.50797648	     -2.83277953	    -11.57103250	    -12.63897624	     43.47687372	    108.49942789	    -12.55210871	     -9.71541421	     -2.79996442	     37.14868562	    108.06604786
      0.37000000	      0.04596633	     -1.73966437	     -0.00140193	      0.27076812	      1.04439411	     -0.20607892	     -6.61438785	      7.90465559	     -3.63358693	      0.56146812	      0.00979947	      9.86535156	      1.08726581	     -6.14078665	     29.08721495	     -4.52133385	     -7.62880115	     38.83666526	      0.67782768	     -5.37740514	     -9.34622313	     -6.14078665	    -10.92261725	      4.93927848	     12.09980073	     -2.58352833	    -11.95950598	    -12.58210762	     43.90776226	    108.43924300	    -12.98432327	     -9.54269536	     -3.39572504	     37.01060695	    107.85037894
      0.38000000	     -0.17102184	     -1.91384311	     -0.36260499	      0.28267528	      1.04270383	     -0.20549616	     -7.19761144	      8.08892328	     -3.39427973	      0.49662211	      0.00866769	     10.48036118	      1.50833380	     -6.18096902	     28.98848374	     -4.34889434	     -7.61468013	     34.42198187	      0.60077692	     -5.97069213	    -10.34724869	     -6.18096902	    -10.79295773	      5.04373825	     12.56509657	     -2.28128652	    -12.33946993	    -12.57576833	     44.33346382	    108.46712690	    -13.45000435	     -9.30282317	     -4.19791962	     36.91771605	    107.70369420
      0.39000000	     -0.54705394	     -2.14111885	     -0.72520198	      0.29467387	      1.04054402	     -0.20487722	     -7.59642908	      8.33253414	     -3.05924326	      0.46189428	      0.00806158	     11.02273044	      1.57508807	     -6.20446284	     28.96538783	     -4.27856183	     -7.63654147	     29.88030383	      0.52150968	     -6.09204691	    -10.54238805	     -6.20446284	    -10.45469165	      5.21319883	     13.05649763	     -2.08352890	    -12.69311381	    -12.55394501	     44.75746444	    108.44915095	    -13.87695713	     -9.09182364	     -4.79494696	     36.74323023	    107.55574637
      0.40000000	     -0.85035677	     -2.44997323	     -1.04082398	      0.30676715	      1.03829229	     -0.20428250	     -8.07647748	      8.66095469	     -2.74174031	      0.43861913	      0.00765535	     11.54885012	      1.65473741	     -6.22831321	     28.74298205	     -4.29053542	     -7.63007396	     25.13477725	      0.43868462	     -6.36618030	    -10.66525076	     -6.22831321	    -10.20157597	      5.47643651	     13.45925249	     -1.85585644	    -13.01147463	    -12.60630058	     45.18807356	    108.47862996	    -14.27621572	     -8.82585846	     -5.53769748	     36.56418656	    107.44437217
      0.41000000	     -1.18414406	     -2.79708182	     -1.32076188	      0.31892701	      1.03581133	     -0.20385704	     -8.52859686	      9.01069622	     -2.44346451	      0.42690842	      0.00745096	     12.03383248	      1.93563528	     -6.27238489	     28.46189202	     -4.29100169	     -7.41611044	     20.28383218	      0.35401966	     -6.76012296	    -10.75341498	     -6.27238489	     -9.92837296	      5.79274571	     13.73802687	     -1.58808490	    -13.28851043	    -12.71213755	     45.60242388	    108.61505614	    -14.75579740	     -8.45831763	     -6.60808597	     36.52673064	    107.43158772
      0.42000000	     -1.51886990	     -3.19229894	     -1.58640316	      0.33124238	      1.03315016	     -0.20338992	     -8.97693420	      9.41223141	     -2.09992599	      0.43199623	      0.00753976	     12.46897667	      1.93337151	     -6.29777402	     28.11306409	     -4.39873035	     -7.29616545	     15.48557141	      0.27027421	     -6.62147096	     -9.85053138	     -6.29777402	     -9.61086657	      6.17309346	     14.00652255	     -1.37536602	    -13.55192439	    -12.79784251	     46.01059211	    108.66041789	    -15.13232750	     -8.15795163	     -7.30937366	     36.29560901	    107.36815320
      0.43000000	     -1.82150898	     -3.60618289	     -1.82521806	      0.34364504	      1.03039334	     -0.20299424	     -9.45922844	      9.81860198	     -1.81466043	      0.45358545	      0.00791656	     12.86979622	      1.99657818	     -6.32095942	     27.69238398	     -4.53496741	     -7.11233671	     10.82620007	      0.18895284	     -6.33056376	     -8.55194313	     -6.32095942	     -9.33381608	      6.56808416	     14.22769903	     -1.17459925	    -13.77147352	    -12.95371561	     46.41561748	    108.70903381	    -15.48363563	     -7.85700135	     -8.06314648	     36.08629953	    107.31166673
      0.44000000	     -2.04673581	     -4.00548036	     -2.05676988	      0.35620807	      1.02764658	     -0.20262006	    -10.02885526	     10.18567011	     -1.59378277	      0.48908790	      0.00853619	     13.24574340	      2.22750796	     -6.35501466	     27.21401406	     -4.69772434	     -6.98549158	      6.52676356	      0.11391351	     -5.77729759	     -6.77073098	     -6.35501466	     -9.15069570	      6.93812668	     14.36613282	     -0.94125569	    -13.92695952	    -13.17515040	     46.82565395	    108.81441796	    -15.83739452	     -7.49774432	     -9.00528324	     35.92764017	    107.32031011
      0.45000000	     -2.49861348	     -4.45301104	     -2.26677024	      0.36870652	      1.02445766	     -0.20228154	    -10.32125930	     10.60528260	     -1.28636973	      0.57149890	      0.00997454	     13.53283194	      2.33141606	     -6.36625333	     27.17108136	     -4.94979104	     -6.63141076	      2.95974877	      0.05165736	     -5.18003325	     -5.11994684	     -6.36625333	     -8.68128447	      7.38741152	     14.45253782	     -0.75410017	    -14.07531679	    -13.29142883	     47.15283262	    108.79467598	    -16.18580650	     -7.26554770	     -9.38753972	     35.64359647	    107.23984403
      0.46000000	     -2.54156695	     -4.82141487	     -2.41707678	      0.38137371	      1.02183488	     -0.20196058	    -11.06038353	     10.92228074	     -1.24414837	      0.66770428	      0.01165364	     13.92425251	      2.62842444	     -6.40924241	     27.23114921	     -5.26448307	     -7.82692772	      0.98148252	      0.01713010	     -2.87153779	     -0.80162732	     -6.40924241	     -8.73815332	      7.68095274	     14.47993898	     -0.50925978	    -14.10053569	    -13.67238421	     47.60455551	    108.96966387	    -16.34943444	     -6.84025677	    -10.63946488	     35.36060211	    107.30602572
      0.47000000	     -2.86391724	     -5.21742589	     -2.54222497	      0.39388404	      1.01878306	     -0.20160649	    -11.43480774	     11.28419019	     -1.04415751	      0.86162500	      0.01503819	     14.19218190	      2.65213136	     -6.45589715	     28.08732260	     -5.66715720	     -9.16981448	      0.48981420	      0.00854887	     -0.58080406	      3.25947277	     -6.45589715	     -8.45677768	      8.02607640	     14.40868588	     -0.24854845	    -14.14302298	    -13.80447233	     47.83321296	    109.08989434	    -16.55130738	     -6.61597153	    -11.14036333	     35.01634977	    107.43857115
